<?xml version="1.0" encoding="utf-8"?>
<!-- Generator: Adobe Illustrator 15.0.2, SVG Export Plug-In . SVG Version: 6.00 Build 0)  -->
<!DOCTYPE svg PUBLIC "-//W3C//DTD SVG 1.1//EN" "http://www.w3.org/Graphics/SVG/1.1/DTD/svg11.dtd">
<svg version="1.1" id="Layer_1" xmlns="http://www.w3.org/2000/svg" xmlns:xlink="http://www.w3.org/1999/xlink" x="0px" y="0px"
	 width="585px" height="70px" viewBox="0 0 585 70" enable-background="new 0 0 585 70" xml:space="preserve">
<path fill="#FEE851" d="M567.166,19.736c0,2.063-1.604,3.676-3.68,3.676c-2.075,0-3.679-1.612-3.679-3.676
	c0-2.07,1.604-3.68,3.679-3.68C565.562,16.056,567.166,17.666,567.166,19.736 M560.381,19.736c0,1.758,1.327,3.15,3.105,3.15
	c1.779,0,3.104-1.392,3.104-3.15c0-1.762-1.324-3.156-3.104-3.156C561.708,16.58,560.381,17.974,560.381,19.736 M562.678,21.861
	h-0.527v-4.253h1.633c0.957,0,1.382,0.416,1.382,1.175c0,0.754-0.49,1.088-1.066,1.188l1.267,1.89h-0.611l-1.196-1.89h-0.88V21.861z
	 M563.371,19.526c0.642,0,1.272-0.018,1.272-0.743c0-0.592-0.494-0.732-1.009-0.732h-0.957v1.476H563.371z"/>
<path fill="#FEE851" d="M29.428,3.742c3.068-0.75,7.634-1.199,12.125-1.199c4.713,0,9.651,0.897,12.946,3.592
	c2.918,2.245,4.639,5.538,4.639,10.029c0,6.06-2.841,10.848-6.435,13.77c-4.042,3.217-9.804,4.714-15.791,4.714
	c-1.795,0-3.368-0.15-4.715-0.373l-3.668,19.083H20L29.428,3.742z M33.544,27.089c1.421,0.3,2.693,0.451,4.566,0.451
	c7.334,0,12.273-4.715,12.273-10.702c0-5.391-3.816-7.337-8.757-7.337c-2.169,0-3.817,0.151-4.865,0.451L33.544,27.089z"/>
<path fill="#FEE851" d="M80.168,53.358c0.075-2.17,0.3-5.09,0.673-8.159h-0.224c-3.592,6.662-8.383,8.981-13.023,8.981
	c-6.509,0-10.776-5.09-10.776-12.423c0-12.423,8.681-25.667,25.667-25.667c3.968,0,8.235,0.748,11.003,1.643l-3.742,19.01
	c-1.047,5.39-1.646,12.273-1.497,16.615H80.168z M83.685,23.197c-0.822-0.223-2.021-0.372-3.517-0.372
	c-8.082,0-14.295,9.055-14.295,17.362c0,3.815,1.421,6.957,5.241,6.957c4.039,0,8.979-5.087,10.701-14.367L83.685,23.197z
	 M93.339,1.422l-9.804,11.073h-6.585l7.183-11.073H93.339z"/>
<path fill="#FEE851" d="M95.882,59.869c2.096,1.273,6.138,2.169,9.581,2.169c5.688,0,10.027-2.691,11.825-11.148l0.897-4.117h-0.15
	c-2.994,4.339-6.811,6.436-11.449,6.436c-7.262,0-11.377-5.987-11.377-12.874c-0.075-12.122,8.68-24.244,23.799-24.244
	c4.716,0,9.28,1.045,12.647,2.543l-5.537,30.084c-1.348,7.108-3.369,12.797-7.484,16.24C114.818,68.102,109.728,69,105.164,69
	c-4.716,0-9.056-0.974-11.451-2.469L95.882,59.869z M122.227,23.797c-0.975-0.448-2.846-0.9-4.866-0.9
	c-7.633,0-13.021,8.233-13.021,16.09c0,3.821,1.497,7.412,5.836,7.412c4.342,0,8.684-5.163,9.956-11.75L122.227,23.797z"/>
<path fill="#FEE851" d="M132.778,53.358l6.959-36.445h8.683l-6.885,36.445H132.778z M145.501,11.673c-2.62,0-4.416-1.871-4.416-4.64
	c0-3.069,2.394-5.24,5.238-5.24c2.77,0,4.642,1.87,4.642,4.641c-0.076,3.218-2.471,5.239-5.389,5.239H145.501z"/>
<path fill="#FEE851" d="M149.167,53.358l4.713-25.145c0.9-4.341,1.424-8.158,1.873-11.3h7.783l-0.825,6.509h0.152
	c3.367-4.865,8.006-7.333,13.097-7.333c5.239,0,9.279,3.142,9.279,10.027c0,1.648-0.299,4.19-0.672,5.988l-3.966,21.252h-8.757
	l3.893-20.581c0.224-1.349,0.448-2.917,0.448-4.339c0-3.068-1.123-5.242-4.567-5.242c-3.891,0-8.98,4.791-10.55,13.323
	l-3.144,16.839H149.167z"/>
<path fill="#FEE851" d="M212.03,53.358c0.076-2.17,0.299-5.09,0.672-8.159h-0.223c-3.593,6.662-8.382,8.981-13.022,8.981
	c-6.511,0-10.779-5.09-10.779-12.424c0-12.422,8.684-25.667,25.671-25.667c3.967,0,8.232,0.748,11,1.643l-3.742,19.01
	c-1.047,5.39-1.646,12.273-1.496,16.615H212.03z M215.546,23.197c-0.823-0.223-2.019-0.373-3.516-0.373
	c-8.083,0-14.294,9.055-14.294,17.363c0,3.815,1.421,6.957,5.238,6.957c4.042,0,8.981-5.087,10.702-14.367L215.546,23.197z"/>
<path fill="#FEE851" d="M227.148,45.199c1.871,1.05,5.461,2.397,8.755,2.397c3.518,0,5.611-2.024,5.611-4.495
	c0-2.24-1.198-3.739-4.789-5.609c-4.19-2.169-7.183-5.314-7.183-9.431c0-7.034,6.135-11.971,14.743-11.971
	c3.815,0,6.958,0.896,8.605,1.869l-2.246,6.286c-1.347-0.748-3.816-1.645-6.811-1.645c-3.292,0-5.537,1.72-5.537,4.189
	c0,2.021,1.646,3.443,4.714,5.09c4.042,2.097,7.56,5.163,7.56,9.729c0,8.083-6.737,12.571-15.494,12.497
	c-4.265-0.076-8.231-1.272-10.178-2.694L227.148,45.199z"/>
<path fill="#FEE851" d="M269.506,41.534l-5.015,11.824h-13.695l23.949-50.442h16.689l5.387,50.442h-13.469l-0.602-11.824H269.506z
	 M282.302,31.88l-0.524-9.279c-0.223-2.844-0.374-7.034-0.675-10.178h-0.148c-1.272,3.144-2.694,7.409-3.965,10.25l-3.893,9.207
	H282.302z"/>
<path fill="#FEE851" d="M299.588,53.358l4.49-24.248c0.897-4.941,1.496-9.129,1.946-12.574h10.924l-0.521,5.615h0.075
	c3.369-4.566,7.783-6.437,12.425-6.437c5.984,0,8.456,3.815,8.754,6.437c3.293-4.492,7.859-6.437,12.273-6.437
	c6.361,0,9.057,4.042,9.057,9.954c0,1.498-0.301,4.565-0.676,6.36l-3.891,21.33h-12.349l3.593-19.683
	c0.223-1.423,0.45-2.919,0.45-4.266c0-2.02-0.975-3.519-2.772-3.519c-3.217,0-6.061,4.64-7.333,11.752l-2.994,15.715h-12.196
	l3.666-19.683c0.224-1.423,0.448-2.841,0.448-4.042c0-2.243-0.747-3.742-2.618-3.742c-3.219,0-6.288,4.717-7.559,11.752
	l-2.843,15.715H299.588z"/>
<path fill="#FEE851" d="M384.379,53.358c0.15-2.097,0.299-4.268,0.374-6.361h-0.224c-3.144,5.464-7.706,7.184-11.6,7.184
	c-6.586,0-11.374-5.09-11.374-13.096c0-12.273,7.782-25.37,26.79-25.37c4.713,0,9.803,0.973,13.099,2.019l-3.97,19.31
	c-0.747,3.967-1.567,11.523-1.419,16.315H384.379z M387.147,25.519c-0.823-0.148-1.719-0.223-2.395-0.223
	c-5.91,0-9.88,8.005-9.88,13.395c0,3.442,1.499,5.237,3.669,5.237c2.32,0,5.46-2.318,7.035-11L387.147,25.519z"/>
<path fill="#FEE851" d="M401.067,53.358l4.045-21.105c1.045-5.911,1.494-12.647,1.865-15.716h11.003
	c-0.148,2.47-0.299,4.939-0.521,7.335h0.223c2.693-4.79,6.885-8.157,11.973-8.157c0.674,0,1.425,0,2.099,0.075l-2.472,12.347h-1.719
	c-7.485,0-10.104,5.914-11.381,12.649l-2.315,12.572H401.067z"/>
<path fill="#FEE851" d="M428.157,53.358l6.961-36.821h12.723l-6.962,36.821H428.157z M442.754,12.796
	c-3.369,0-5.914-2.243-5.914-5.913c0-4.116,3.367-6.883,7.107-6.883c3.518,0,6.14,2.317,6.14,5.911c0,4.415-3.444,6.885-7.262,6.885
	H442.754z"/>
<polygon fill="#FEE851" points="447.015,53.358 457.195,0.225 469.919,0.225 459.738,53.358 "/>
<polygon fill="#FEE851" points="465.801,53.358 475.978,0.225 488.699,0.225 478.524,53.358 "/>
<path fill="#FEE851" d="M508.531,53.358c0.154-2.097,0.302-4.268,0.375-6.361h-0.221c-3.148,5.464-7.711,7.184-11.604,7.184
	c-6.586,0-11.376-5.09-11.376-13.096c0-12.273,7.785-25.37,26.791-25.37c4.715,0,9.806,0.973,13.1,2.019l-3.968,19.31
	c-0.747,3.967-1.573,11.523-1.423,16.315H508.531z M511.302,25.519c-0.824-0.148-1.722-0.223-2.396-0.223
	c-5.914,0-9.878,8.005-9.878,13.395c0,3.442,1.498,5.237,3.668,5.237c2.319,0,5.461-2.318,7.03-11L511.302,25.519z"/>
<path fill="#FEE851" d="M526.715,42.282c2.249,1.047,6.515,2.619,10.256,2.619c2.545,0,3.666-0.974,3.666-2.169
	c0-1.348-1.198-2.398-4.415-3.817c-4.191-2.022-8.232-5.089-8.232-9.956c0-8.082,7.185-13.244,17.364-13.244
	c4.713,0,8.231,0.897,10.18,1.945l-2.924,8.907c-1.643-0.75-4.338-1.572-7.78-1.572c-2.472,0-4.043,0.748-4.043,2.244
	c0,0.974,1.421,2.096,4.265,3.37c3.966,1.944,8.831,4.64,8.831,10.178c0,8.681-7.559,13.395-18.108,13.32
	c-4.94-0.151-9.73-1.272-12.049-3.067L526.715,42.282z"/>
</svg>
